<?xml version="1.0" standalone="no"?>
<!DOCTYPE svg PUBLIC "-//W3C//DTD SVG 20010904//EN"
 "http://www.w3.org/TR/2001/REC-SVG-20010904/DTD/svg10.dtd">
<svg version="1.0" xmlns="http://www.w3.org/2000/svg"
 width="375.000000pt" height="210.000000pt" viewBox="0 0 375.000000 210.000000"
 preserveAspectRatio="xMidYMid meet">

<g transform="translate(0.000000,210.000000) scale(0.100000,-0.100000)"
fill="#000000" stroke="none">
<path d="M28 1078 c-2 -546 -2 -994 -1 -996 2 -4 1511 723 1520 732 8 8 -47
114 -82 161 -72 96 -191 172 -293 190 l-43 7 44 28 c53 33 87 76 124 155 26
55 28 70 28 181 0 120 0 120 -39 199 -73 147 -212 255 -396 307 -69 19 -107
21 -467 25 l-392 5 -3 -994z m727 511 c83 -23 129 -79 127 -156 0 -56 -30
-103 -84 -133 -35 -20 -60 -24 -150 -28 l-108 -5 0 167 0 166 88 0 c48 0 105
-5 127 -11z m197 -712 c67 -33 99 -77 106 -147 6 -65 -12 -112 -58 -154 -59
-53 -117 -66 -302 -66 l-158 0 0 201 0 201 178 -3 c170 -4 179 -5 234 -32z"/>
<path d="M1060 2033 c166 -82 296 -253 325 -425 l6 -37 127 -3 127 -3 3 -352
2 -352 268 130 267 129 3 226 2 225 245 -3 245 -3 0 253 0 252 -846 0 -847 0
73 -37z"/>
</g>
</svg>
